<?xml version="1.0" encoding="UTF-8"?>
<svg version="1.1" xmlns="http://www.w3.org/2000/svg" width="1024" height="1024">
<path d="M0 0 C1.50241177 -0.00418577 3.00482037 -0.00967001 4.50722325 -0.01631981 C8.58656006 -0.03063029 12.66569238 -0.02657544 16.7450397 -0.019153 C21.16370399 -0.01438754 25.58232616 -0.02696076 30.00097656 -0.03717041 C38.6382814 -0.05429784 47.2755133 -0.05521108 55.9128307 -0.04995751 C62.93842705 -0.04590337 69.96400198 -0.04737407 76.98959732 -0.05270576 C78.49389728 -0.0538284 78.49389728 -0.0538284 80.02858714 -0.05497371 C82.06640744 -0.05650531 84.10422773 -0.05804366 86.14204802 -0.05958868 C105.2183983 -0.07329172 124.29470748 -0.06789142 143.37105681 -0.05640347 C160.79167564 -0.0464726 178.21218823 -0.05941316 195.63279067 -0.08333766 C213.55765185 -0.1077676 231.48246364 -0.11732701 249.40734112 -0.11068493 C259.45585605 -0.10720146 269.50428933 -0.10936698 279.5527916 -0.12693596 C288.10630656 -0.14170672 296.65968234 -0.14222995 305.21319471 -0.12486505 C309.56994626 -0.11639279 313.9264497 -0.11411222 318.28318787 -0.1295166 C353.40283853 -0.24467265 381.82604117 5.1870417 407.7336731 30.70799255 C428.99711721 53.65770593 432.00253825 79.05999107 431.90110302 108.85635149 C431.89196194 112.83665476 431.90606655 116.81689078 431.91702271 120.79718018 C431.93471646 128.57210066 431.93100917 136.34686582 431.91937214 144.12179215 C431.91030248 150.44563265 431.90912901 156.76942992 431.91346741 163.09327507 C431.91408034 163.99667066 431.91469327 164.90006625 431.91532478 165.83083747 C431.9166038 167.6666157 431.91790066 169.50239392 431.91921514 171.33817213 C431.93059398 188.51168238 431.91754937 205.68510692 431.89601368 222.85860311 C431.87814211 237.56503426 431.88125253 252.27133907 431.89968872 266.97776794 C431.92113798 284.09548326 431.92949878 301.21312366 431.91723967 318.33085054 C431.91596559 320.15920062 431.91470811 321.9875507 431.91346741 323.8159008 C431.91285031 324.71526279 431.9122332 325.61462477 431.9115974 326.54124014 C431.90815687 332.85129383 431.91394466 339.16129963 431.92338562 345.4713459 C431.93465205 353.16998236 431.93146848 360.86845588 431.91026264 368.56707389 C431.89981475 372.48815624 431.89552214 376.4089678 431.90885925 380.33004761 C432.00290255 410.49018593 432.00290255 410.49018593 427.37820435 423.38768005 C427.00037056 424.47093598 426.62253677 425.55419191 426.23325348 426.67027378 C417.95871127 449.22998816 399.66825317 466.9879327 378.37820435 477.38768005 C360.53386898 485.27761528 342.40191954 485.82809095 323.22097778 485.77244568 C320.83252199 485.776559 318.44406821 485.78202435 316.05561829 485.78872681 C310.94738338 485.8003793 305.83925629 485.80296249 300.73101044 485.79837036 C293.34024008 485.7921057 285.94961365 485.80415985 278.55886665 485.82187754 C266.55578032 485.85041099 254.55270769 485.86801088 242.54959106 485.87644958 C241.4758996 485.87721035 241.4758996 485.87721035 240.38051739 485.87798649 C234.56730732 485.88202194 228.75409694 485.88551897 222.9408865 485.88898373 C217.84137898 485.89204388 212.74187167 485.89531552 207.6423645 485.89891052 C206.92381789 485.89941314 206.20527128 485.89991575 205.46495053 485.9004336 C193.48736037 485.90917472 181.50981755 485.92959574 169.53225923 485.95839262 C162.8180965 485.97401956 156.10403546 485.98317964 149.38985443 485.97698975 C143.08927675 485.97135686 136.78885958 485.97896021 130.48830605 485.99683571 C128.17476268 486.00084739 125.86120388 485.99969806 123.54766655 485.99306297 C120.39501009 485.98471367 117.2429234 485.99463457 114.09030151 486.00914001 C113.17096132 486.00224608 112.25162113 485.99535214 111.30442214 485.9882493 C105.14243719 486.04365629 101.82335648 487.160772 97.18997192 491.38059998 C96.47478394 492.11899109 95.75959595 492.8573822 95.0227356 493.6181488 C94.23576294 494.42059021 93.44879028 495.22303162 92.63796997 496.04978943 C91.83037231 496.88316833 91.02277466 497.71654724 90.19070435 498.57518005 C88.57684093 500.23983382 86.95857946 501.90023889 85.3352356 503.5556488 C84.6234314 504.29065613 83.9116272 505.02566345 83.17825317 505.78294373 C81.37820435 507.38768005 81.37820435 507.38768005 79.37820435 507.38768005 C79.0224231 508.23024353 79.0224231 508.23024353 78.65945435 509.08982849 C77.08501078 511.91350663 75.1613589 513.86382848 72.87820435 516.15330505 C71.99132935 517.04275818 71.10445435 517.9322113 70.19070435 518.84861755 C68.79851685 520.22920349 68.79851685 520.22920349 67.37820435 521.63768005 C66.45007935 522.57353943 65.52195435 523.5093988 64.56570435 524.47361755 C63.67882935 525.35791443 62.79195435 526.2422113 61.87820435 527.15330505 C61.06351685 527.96573669 60.24882935 528.77816833 59.40945435 529.61521912 C57.37820435 531.38768005 57.37820435 531.38768005 55.37820435 531.38768005 C55.1564856 531.94713318 54.93476685 532.5065863 54.70632935 533.08299255 C52.96163739 536.11054624 50.75220854 537.95439829 48.12820435 540.26268005 C43.91654737 544.00192315 39.89959853 547.85623742 35.98831177 551.90916443 C22.85019693 565.45589373 22.85019693 565.45589373 11.81570435 566.01268005 C5.82985345 565.75424775 1.75015253 564.53224559 -2.62179565 560.38768005 C-8.29858548 553.88569271 -8.8647394 548.39955449 -9.18429565 540.13768005 C-9.22675415 539.07750671 -9.26921265 538.01733337 -9.31295776 536.92503357 C-9.89888262 520.08883055 -9.70576118 503.23116497 -9.62179565 486.38768005 C-10.59451416 486.20761414 -10.59451416 486.20761414 -11.58688354 486.02391052 C-41.20754609 480.44856492 -65.67705058 470.08322445 -83.55929565 444.62986755 C-94.40364459 428.22311549 -98.75532619 411.14973575 -98.79347229 391.68821716 C-98.7998214 390.40650068 -98.80617051 389.1247842 -98.81271201 387.80422783 C-98.83011616 384.25751472 -98.84144048 380.71080459 -98.85172236 377.16406465 C-98.86387028 373.3342661 -98.88161538 369.50449276 -98.89859009 365.67471313 C-98.93087081 358.17421318 -98.957718 350.67370329 -98.98239287 343.1731748 C-99.00247798 337.07220612 -99.02407506 330.97124469 -99.04673195 324.87028503 C-99.1108368 307.55631884 -99.17073806 290.24234519 -99.22541406 272.92834663 C-99.2283611 271.9953417 -99.23130814 271.06233677 -99.23434448 270.10105896 C-99.23729422 269.16690847 -99.24024395 268.23275799 -99.24328307 267.27029991 C-99.29130045 252.14593598 -99.34938749 237.02162964 -99.41204216 221.89731991 C-99.47632336 206.35146818 -99.5329148 190.80560457 -99.58161002 175.25969601 C-99.60908695 166.5385671 -99.63970293 157.8174758 -99.67862511 149.09638977 C-99.71172256 141.66764739 -99.73764725 134.23892183 -99.7544814 126.8101241 C-99.76326088 123.02497476 -99.77524119 119.23991189 -99.79628944 115.45480919 C-99.81908474 111.33752254 -99.82575977 107.22035843 -99.83106995 103.10301208 C-99.84462171 101.3372402 -99.84462171 101.3372402 -99.85844725 99.53579617 C-99.84722127 88.23514807 -98.80576275 76.7412596 -95.49679565 65.88768005 C-95.28579224 65.18828308 -95.07478882 64.48888611 -94.85739136 63.76829529 C-91.04069015 51.83387287 -84.75586027 41.85638054 -76.62179565 32.38768005 C-76.09199097 31.63873474 -75.56218628 30.88978943 -75.0163269 30.1181488 C-74.55613159 29.54709412 -74.09593628 28.97603943 -73.62179565 28.38768005 C-72.96179565 28.38768005 -72.30179565 28.38768005 -71.62179565 28.38768005 C-71.29179565 27.39768005 -70.96179565 26.40768005 -70.62179565 25.38768005 C-68.67648465 23.68296558 -66.75064967 22.11906452 -64.68429565 20.57518005 C-64.09237427 20.13013123 -63.50045288 19.6850824 -62.89059448 19.22654724 C-43.94391781 5.15406625 -23.40883395 -0.10824747 0 0 Z M17.1164856 113.96580505 C13.2724891 119.0495489 11.26750166 122.96692437 11.37820435 129.38768005 C12.16948368 132.12119048 12.8333854 132.99852367 15.12820435 134.63768005 C18.18523626 135.65669069 20.15866299 135.82957789 23.37820435 135.38768005 C27.86597128 133.07429577 30.78579606 129.94394458 33.87820435 125.99705505 C44.36759473 114.74281329 59.71637071 110.13938471 74.56570435 109.3759613 C80.30185328 109.39359291 85.75552419 110.33023696 91.37820435 111.38768005 C98.2854921 112.85630314 98.2854921 112.85630314 104.56570435 110.32518005 C106.61703663 107.53657333 106.61703663 107.53657333 106.50320435 104.38768005 C104.32342495 98.57493499 100.48249892 96.26958885 95.06570435 93.70018005 C68.10027699 81.61494473 35.96853044 92.47642751 17.1164856 113.96580505 Z M228.31570435 100.76268005 C227.03600203 104.34584653 227.41506178 106.74149747 228.37820435 110.38768005 C232.15601182 112.90621837 233.87643527 112.67811677 238.37820435 112.38768005 C239.73754529 112.09851608 241.09170672 111.78428934 242.44070435 111.45018005 C257.85350021 107.8128649 273.19178015 109.26854879 287.37820435 116.38768005 C294.22157408 120.71328409 299.79689625 125.55841275 304.93289185 131.78611755 C306.90685807 133.97348553 308.47787104 134.86710741 311.37820435 135.38768005 C315.18539988 135.30998219 316.86070817 134.8122923 319.81570435 132.38768005 C321.68669675 128.79537464 321.82196543 126.75975821 321.19851685 122.8134613 C319.68034324 118.32400506 316.74560375 114.67731042 313.37820435 111.38768005 C312.71820435 111.38768005 312.05820435 111.38768005 311.37820435 111.38768005 C311.37820435 110.72768005 311.37820435 110.06768005 311.37820435 109.38768005 C296.76567508 95.32473707 279.32397346 88.60559783 259.33328247 88.86180115 C248.02310065 89.28385243 236.05264363 91.85347724 228.31570435 100.76268005 Z M42.37820435 172.38768005 C41.7336731 172.86592224 41.08914185 173.34416443 40.42507935 173.8368988 C28.58862266 183.0870431 21.28118207 198.73871613 19.37820435 213.38768005 C19.16388398 217.79098936 19.49717047 220.85609015 22.37820435 224.38768005 C25.23110132 225.6409779 25.23110132 225.6409779 28.37820435 225.38768005 C32.09753587 223.48309483 34.75803697 221.14326544 37.69070435 218.20018005 C41.96576591 214.28350689 46.29711642 211.5319014 51.44070435 208.95018005 C52.41293945 208.4557843 52.41293945 208.4557843 53.40481567 207.95140076 C61.30479816 204.15651518 69.10963637 203.01314577 77.81570435 203.07518005 C78.64972778 203.0808197 79.48375122 203.08645935 80.3430481 203.0922699 C94.50897851 203.37171501 106.34920675 209.45090313 116.37820435 219.38768005 C117.22382935 220.37768005 118.06945435 221.36768005 118.94070435 222.38768005 C121.31991708 224.76191097 121.31991708 224.76191097 125.00320435 224.45018005 C128.31485644 223.63330509 128.31485644 223.63330509 130.31570435 221.82518005 C134.2351443 212.83352368 129.32300506 201.33952319 125.94070435 192.7275238 C119.80270744 179.40393918 110.69596332 169.26302238 97.0930481 163.40330505 C79.03617352 157.01255812 57.00208924 159.96946375 42.37820435 172.38768005 Z M222.37820435 171.38768005 C222.37820435 172.04768005 222.37820435 172.70768005 222.37820435 173.38768005 C221.79812622 173.62873474 221.2180481 173.86978943 220.62039185 174.1181488 C211.87051614 179.07234672 206.51927359 191.0602162 203.81863403 200.30271912 C202.01935349 207.23493764 200.22894769 214.40259593 202.37820435 221.38768005 C204.43248423 223.70374515 204.43248423 223.70374515 207.37820435 224.38768005 C212.16328134 223.68985633 213.99102995 221.83110546 216.8586731 218.09861755 C224.12165259 209.92076404 236.53284874 203.98901602 247.41799927 203.24900818 C265.12942747 202.49225221 280.1156297 204.88820807 293.75320435 217.01268005 C298.02529524 220.9864027 298.02529524 220.9864027 299.91726685 223.13768005 C302.29713493 225.17393082 304.50281704 224.79480436 307.5071106 224.68455505 C309.51178651 224.50836931 309.51178651 224.50836931 311.31570435 223.01268005 C314.14471313 218.68596073 313.73935256 214.76042385 312.98757935 209.8212738 C309.78062928 194.71160521 301.44562297 178.55320359 288.47976685 169.69236755 C287.78625122 169.26182068 287.0927356 168.8312738 286.37820435 168.38768005 C285.30699341 167.71092224 285.30699341 167.71092224 284.21414185 167.02049255 C265.90000149 156.66902192 238.84746501 157.86264476 222.37820435 171.38768005 Z M23.37820435 267.38768005 C17.72285297 275.87070712 21.35115224 287.81225435 23.08914185 297.24705505 C29.34495551 325.36952017 44.76328663 349.74675126 64.37820435 370.38768005 C64.94796997 371.0218988 65.5177356 371.65611755 66.10476685 372.30955505 C85.06052178 392.72344498 113.6222437 404.17369798 140.37820435 409.38768005 C141.37722778 409.61197693 142.37625122 409.8362738 143.4055481 410.06736755 C178.00431192 416.84779644 217.10147401 407.45784385 246.37820435 388.38768005 C249.47688703 386.16358763 252.42860541 383.80359669 255.37820435 381.38768005 C256.70716865 380.40259173 258.04046561 379.42331941 259.37820435 378.45018005 C267.95227399 371.99840488 274.79837371 364.855636 281.37820435 356.38768005 C282.474552 355.04963318 282.474552 355.04963318 283.5930481 353.68455505 C300.43284251 332.49423378 313.25114239 301.85165406 312.37820435 274.38768005 C311.63972712 270.69529392 310.13369019 268.31750879 307.75320435 265.38768005 C300.05376643 262.14581146 290.0887671 267.42751644 282.87820435 270.13768005 C280.36240837 271.05977996 277.84311315 271.97211688 275.32351685 272.8837738 C274.11856567 273.32060486 272.9136145 273.75743591 271.67214966 274.20750427 C238.37470086 286.13752706 202.13395182 289.60355619 166.94070435 289.63768005 C166.20196075 289.63868713 165.46321716 289.63969421 164.7020874 289.64073181 C140.40400722 289.61874523 116.1432771 287.56150528 92.37820435 282.38768005 C91.5470813 282.21542908 90.71595825 282.0431781 89.85964966 281.8657074 C71.61070501 278.06062325 53.61898634 272.38769936 36.43875122 265.1493988 C31.23628548 263.22621242 27.71661117 264.13387494 23.37820435 267.38768005 Z " fill="#1E272D" transform="translate(345.6217956542969,234.61231994628906)"/>
<path d="M0 0 C5.88570172 1.19182472 11.46935353 2.74675363 17.125 4.75 C36.66834121 11.4153556 56.66079068 15.58950378 77 19 C77.75216797 19.12890625 78.50433594 19.2578125 79.27929688 19.390625 C125.07991709 27.07744238 173.99034213 18.19156747 217.17602539 2.53149414 C219 2 219 2 222 2 C222.33 1.34 222.66 0.68 223 0 C223.99 0.495 223.99 0.495 225 1 C223.42568998 22.25318522 206.22802826 40.36526311 191 54 C177.2107662 65.67713047 161.41961897 74.20819543 144 79 C142.93910156 79.31839844 141.87820313 79.63679687 140.78515625 79.96484375 C116.86940772 86.02052337 89.38165366 83.13661851 67 73 C66.38060547 72.72172363 65.76121094 72.44344727 65.12304688 72.15673828 C49.01367036 64.82022666 35.24752401 54.80592176 23 42 C23 41.34 23 40.68 23 40 C22.34 40 21.68 40 21 40 C10.61152567 28.7232918 3.25401968 14.97949703 0 0 Z " fill="#1F282D" transform="translate(399,534)"/>
<path d="M0 0 C81.51 0 163.02 0 247 0 C247 0.33 247 0.66 247 1 C245.12837802 1.00358253 245.12837802 1.00358253 243.2189455 1.00723743 C213.60758544 1.06458301 183.99630676 1.13730335 154.38503497 1.22898628 C150.74130946 1.2402546 147.09758357 1.25139303 143.45385742 1.26245117 C142.72844958 1.26465486 142.00304175 1.26685854 141.25565185 1.269129 C129.50612901 1.3045125 117.75660623 1.32937068 106.00704984 1.35034702 C93.95314073 1.37210071 81.89930083 1.40514698 69.84545058 1.44870156 C63.07404481 1.47284425 56.30270799 1.49174636 49.53125954 1.49761391 C43.16111308 1.50364493 36.79116304 1.52357301 30.42108917 1.55427551 C28.08015746 1.56308757 25.73920012 1.56677181 23.39825249 1.56500816 C20.20743684 1.56336288 17.0172253 1.57999145 13.82649231 1.60127258 C12.43008797 1.59400122 12.43008797 1.59400122 11.00547343 1.58658296 C6.13330239 1.64038117 2.99430902 1.917438 -1 5 C-1.99 5.66 -2.98 6.32 -4 7 C-4 6.01 -4 5.02 -4 4 C-2.68 3.34 -1.36 2.68 0 2 C0 1.34 0 0.68 0 0 Z " fill="#44422C" transform="translate(446,719)"/>
<path d="M0 0 C5.41082152 0.31828362 8.83287311 1.5112426 13 5 C14.5 7.5625 14.5 7.5625 15 10 C14.01 11.485 14.01 11.485 13 13 C12.566875 11.88625 12.13375 10.7725 11.6875 9.625 C10.30088881 5.82487666 10.30088881 5.82487666 7 4 C1.52430065 3.87265815 -3.82525265 5.34848489 -9 7 C-9 6.34 -9 5.68 -9 5 C-6.35261084 3.5393715 -5.10551666 3 -2 3 C-1.67 2.34 -1.34 1.68 -1 1 C-0.67 0.67 -0.34 0.34 0 0 Z " fill="#282D29" transform="translate(644,496)"/>
<path d="M0 0 C3.93992484 1.49445425 4.87934829 3.46558048 7 7 C9.24523477 9.42646449 11.60447331 11.72260888 14 14 C13.34 14.66 12.68 15.32 12 16 C10.99403703 15.0479279 9.99538437 14.08812654 9 13.125 C8.443125 12.59132813 7.88625 12.05765625 7.3125 11.5078125 C6 10 6 10 6 8 C5.34 8 4.68 8 4 8 C0 3.64705882 0 3.64705882 0 0 Z " fill="#292C29" transform="translate(416,566)"/>
<path d="M0 0 C0.62109375 1.8359375 0.62109375 1.8359375 1 4 C-2.67767693 8.98265907 -6.18976585 9.91673601 -12 11 C-12 10.34 -12 9.68 -12 9 C-12.66 8.67 -13.32 8.34 -14 8 C-12.205625 7.9690625 -12.205625 7.9690625 -10.375 7.9375 C-6.54618779 7.50147868 -4.9702739 6.3687341 -2.5 3.4375 C-1.64518674 2.30760055 -0.80409059 1.16654052 0 0 Z " fill="#2E312B" transform="translate(564,450)"/>
<path d="M0 0 C4.455 0.99 4.455 0.99 9 2 C8.01 2.33 7.02 2.66 6 3 C5.30062468 4.31647119 4.63270867 5.65022151 4 7 C3.01 7.495 3.01 7.495 2 8 C1.34 5.36 0.68 2.72 0 0 Z " fill="#33352D" transform="translate(399,534)"/>
<path d="M0 0 C0.99 0.66 1.98 1.32 3 2 C2.01 2.33 1.02 2.66 0 3 C-1.09166275 4.93330603 -1.09166275 4.93330603 -2 7 C-2.66 7.66 -3.32 8.32 -4 9 C-4.99 9 -5.98 9 -7 9 C-5.44499019 5.18315774 -2.96404505 2.80804268 0 0 Z " fill="#2A2F2B" transform="translate(613,605)"/>
<path d="M0 0 C0.66 0 1.32 0 2 0 C0.34710721 3.58126772 -1.78322183 6.74410707 -4 10 C-4.66 10.99 -5.32 11.98 -6 13 C-6.33 12.01 -6.66 11.02 -7 10 C-5.6875 7.5625 -5.6875 7.5625 -4 5 C-3.31903578 3.67391178 -2.64669414 2.34313399 -2 1 C-1.34 1.33 -0.68 1.66 0 2 C0 1.34 0 0.68 0 0 Z " fill="#34352B" transform="translate(363,346)"/>
<path d="M0 0 C-1.44077046 3.36179774 -3.24750021 5.59156268 -6 8 C-6.66 8 -7.32 8 -8 8 C-7.32253522 3.25774652 -4.9532836 0 0 0 Z " fill="#2C302B" transform="translate(384,358)"/>
<path d="M0 0 C1.15242187 0.10183594 2.30484375 0.20367187 3.4921875 0.30859375 C4.36101563 0.39238281 5.22984375 0.47617187 6.125 0.5625 C6.125 0.8925 6.125 1.2225 6.125 1.5625 C-0.45349492 2.51744281 -6.29316638 2.4556507 -12.875 1.5625 C-12.875 1.2325 -12.875 0.9025 -12.875 0.5625 C-8.41295824 -0.3529645 -4.52954615 -0.41597873 0 0 Z " fill="#111B25" transform="translate(604.875,393.4375)"/>
<path d="M0 0 C1.15941038 3.47823115 0.70820884 5.45895578 0 9 C-1.98 9 -3.96 9 -6 9 C-4.02 6.03 -2.04 3.06 0 0 Z " fill="#2B2F2A" transform="translate(632,583)"/>
<path d="M0 0 C5.19822672 1.36144033 8.09543873 3.46730171 12 7 C11.34 7.66 10.68 8.32 10 9 C10 8.34 10 7.68 10 7 C9.278125 6.731875 8.55625 6.46375 7.8125 6.1875 C5.00233617 5.00098638 2.51583443 3.72514361 0 2 C0 1.34 0 0.68 0 0 Z " fill="#2D3129" transform="translate(627,443)"/>
<path d="M0 0 C0.33 0.66 0.66 1.32 1 2 C-3.29 2 -7.58 2 -12 2 C-7.69698287 -0.86867809 -5.02485414 -1.49387555 0 0 Z " fill="#303329" transform="translate(323,238)"/>
<path d="M0 0 C1 3 1 3 0.3125 5.5625 C-1.16086774 8.29875437 -2.13522966 8.94958421 -5 10 C-5.66 9.34 -6.32 8.68 -7 8 C-4.69 5.36 -2.38 2.72 0 0 Z " fill="#33352A" transform="translate(625,592)"/>
<path d="M0 0 C5.09448798 0.43173627 8.84512277 0.75400216 13 4 C13 4.66 13 5.32 13 6 C8.52761347 4.58192622 4.28853694 2.88695626 0 1 C0 0.67 0 0.34 0 0 Z " fill="#34352B" transform="translate(619,397)"/>
<path d="M0 0 C0.66 0.33 1.32 0.66 2 1 C0.63016497 4.16115776 0.0109362 4.9927092 -3 7 C-4.32 6.67 -5.64 6.34 -7 6 C-4.69 4.02 -2.38 2.04 0 0 Z " fill="#2C312C" transform="translate(281,255)"/>
<path d="M0 0 C0.66 0 1.32 0 2 0 C0.4169423 4.2742558 -2.50568404 6.26531794 -6 9 C-6 8.01 -6 7.02 -6 6 C-5.01 5.67 -4.02 5.34 -3 5 C-1.8499169 3.03327085 -1.8499169 3.03327085 -1 1 C-0.67 0.67 -0.34 0.34 0 0 Z " fill="#3F3D2C" transform="translate(439,726)"/>
<path d="M0 0 C0 0.66 0 1.32 0 2 C-1.41433206 2.2236337 -2.83167618 2.42826476 -4.25 2.625 C-5.03890625 2.74101563 -5.8278125 2.85703125 -6.640625 2.9765625 C-9.32152459 3.00319395 -10.72694089 2.36592084 -13 1 C-8.62426048 0.40667939 -4.42471556 -0.13827236 0 0 Z " fill="#36372B" transform="translate(538,644)"/>
<path d="M0 0 C0.33 0 0.66 0 1 0 C1.08086147 1.79093191 1.13912702 3.58289628 1.1875 5.375 C1.22230469 6.37273438 1.25710938 7.37046875 1.29296875 8.3984375 C1.19628906 9.25695312 1.09960938 10.11546875 1 11 C0.01 11.66 -0.98 12.32 -2 13 C-1.48041715 8.62065881 -0.94324258 4.31196609 0 0 Z " fill="#36372B" transform="translate(656,524)"/>
<path d="M0 0 C2.3125 0.125 2.3125 0.125 5 1 C6.8125 4.0625 6.8125 4.0625 8 7 C7.01 8.485 7.01 8.485 6 10 C5.566875 8.906875 5.13375 7.81375 4.6875 6.6875 C3.50504359 3.90591207 2.39199957 1.93638061 0 0 Z " fill="#413E2D" transform="translate(651,499)"/>
<path d="M0 0 C0.66 0.33 1.32 0.66 2 1 C1.21654285 2.17219543 0.42297164 3.33763668 -0.375 4.5 C-0.81585938 5.1496875 -1.25671875 5.799375 -1.7109375 6.46875 C-2.13632812 6.9740625 -2.56171875 7.479375 -3 8 C-3.66 8 -4.32 8 -5 8 C-4.45773019 4.20411134 -2.79872437 2.52788007 0 0 Z " fill="#292D28" transform="translate(385,450)"/>
<path d="M0 0 C0 0.66 0 1.32 0 2 C-3.07115285 4.95303159 -5.8333396 5.52651586 -10 6 C-4.4 0 -4.4 0 0 0 Z " fill="#292D29" transform="translate(398,443)"/>
<path d="M0 0 C0.53625 0.2475 1.0725 0.495 1.625 0.75 C1.295 1.41 0.965 2.07 0.625 2.75 C-1.025 2.75 -2.675 2.75 -4.375 2.75 C-4.375 3.41 -4.375 4.07 -4.375 4.75 C-5.695 4.42 -7.015 4.09 -8.375 3.75 C-2.95961538 -0.31153846 -2.95961538 -0.31153846 0 0 Z " fill="#292D29" transform="translate(595.375,621.25)"/>
<path d="M0 0 C0.66 0 1.32 0 2 0 C0.50902342 3.7952131 -1.75700849 5.61042731 -5 8 C-5 7.01 -5 6.02 -5 5 C-4.01 4.67 -3.02 4.34 -2 4 C-2 3.34 -2 2.68 -2 2 C-1.34 2 -0.68 2 0 2 C0 1.34 0 0.68 0 0 Z " fill="#2E3128" transform="translate(378,786)"/>
<path d="M0 0 C0.66 1.32 1.32 2.64 2 4 C0.68 4.99 -0.64 5.98 -2 7 C-2.66 6.34 -3.32 5.68 -4 5 C-2.68 3.35 -1.36 1.7 0 0 Z " fill="#2F332C" transform="translate(267,269)"/>
<path d="M0 0 C3.36720387 1.39332574 4.9859524 2.9789286 7 6 C4 6 4 6 1.8125 4.125 C0 2 0 2 0 0 Z " fill="#373629" transform="translate(423,575)"/>
<path d="M0 0 C3.25543229 0.34879632 4.01873107 1.02133261 6.25 3.5625 C6.8275 4.366875 7.405 5.17125 8 6 C4.74456771 5.65120368 3.98126893 4.97866739 1.75 2.4375 C1.1725 1.633125 0.595 0.82875 0 0 Z " fill="#353729" transform="translate(455,449)"/>
<path d="M0 0 C1.88391785 3.26545761 2.49287967 6.28111761 3 10 C2.01 10.495 2.01 10.495 1 11 C-0.28317892 7.15046324 -0.06643637 4.05261865 0 0 Z " fill="#39382B" transform="translate(772,297)"/>
<path d="M0 0 C2.97 0.99 5.94 1.98 9 3 C8.01 3.66 7.02 4.32 6 5 C4.02 4.01 2.04 3.02 0 2 C0 1.34 0 0.68 0 0 Z " fill="#30342B" transform="translate(624,347)"/>
<path d="M0 0 C2.97 0.99 5.94 1.98 9 3 C8.01 3.66 7.02 4.32 6 5 C4.02 4.01 2.04 3.02 0 2 C0 1.34 0 0.68 0 0 Z " fill="#37372B" transform="translate(718,242)"/>
<path d="M0 0 C1.98 0 3.96 0 6 0 C6 0.33 6 0.66 6 1 C4.02 1 2.04 1 0 1 C0 0.67 0 0.34 0 0 Z " fill="#917732" transform="translate(416,233)"/>
<path d="M0 0 C4 1 4 1 4 1 Z " fill="#8C7530" transform="translate(522,233)"/>
<path d="M0 0 C3 1 3 1 3 1 Z " fill="#8E7531" transform="translate(560,233)"/>
<path d="M0 0 C3 1 3 1 3 1 Z " fill="#8F7531" transform="translate(424,233)"/>
<path d="M0 0 C3 1 3 1 3 1 Z " fill="#937731" transform="translate(392,233)"/>
<path d="M0 0 C3 1 3 1 3 1 Z " fill="#927732" transform="translate(384,233)"/>
<path d="M0 0 C2 1 2 1 2 1 Z " fill="#816C34" transform="translate(538,641)"/>
<path d="" fill="#877336" transform="translate(0,0)"/>
<path d="" fill="#826C34" transform="translate(0,0)"/>
<path d="M0 0 C2 1 2 1 2 1 Z " fill="#8F7731" transform="translate(624,233)"/>
<path d="M0 0 C2 1 2 1 2 1 Z " fill="#917732" transform="translate(609,233)"/>
<path d="M0 0 C2 1 2 1 2 1 Z " fill="#8C7230" transform="translate(604,233)"/>
<path d="M0 0 C2 1 2 1 2 1 Z " fill="#8E7432" transform="translate(601,233)"/>
<path d="M0 0 C2 1 2 1 2 1 Z " fill="#8F7532" transform="translate(593,233)"/>
<path d="M0 0 C2 1 2 1 2 1 Z " fill="#90762F" transform="translate(556,233)"/>
<path d="M0 0 C2 1 2 1 2 1 Z " fill="#8B732F" transform="translate(548,233)"/>
<path d="M0 0 C2 1 2 1 2 1 Z " fill="#90762F" transform="translate(537,233)"/>
<path d="M0 0 C2 1 2 1 2 1 Z " fill="#927631" transform="translate(497,233)"/>
<path d="M0 0 C2 1 2 1 2 1 Z " fill="#917531" transform="translate(481,233)"/>
<path d="" fill="#9E8134" transform="translate(0,0)"/>
<path d="" fill="#A78533" transform="translate(0,0)"/>
<path d="" fill="#AA8833" transform="translate(0,0)"/>
<path d="" fill="#9C8030" transform="translate(0,0)"/>
<path d="" fill="#9E8133" transform="translate(0,0)"/>
<path d="" fill="#A5822B" transform="translate(0,0)"/>
<path d="" fill="#A4832C" transform="translate(0,0)"/>
<path d="" fill="#A18234" transform="translate(0,0)"/>
<path d="" fill="#9B7E33" transform="translate(0,0)"/>
<path d="" fill="#A08431" transform="translate(0,0)"/>
<path d="" fill="#856E34" transform="translate(0,0)"/>
<path d="" fill="#7F6B30" transform="translate(0,0)"/>
<path d="" fill="#866F36" transform="translate(0,0)"/>
<path d="" fill="#847237" transform="translate(0,0)"/>
<path d="" fill="#846D31" transform="translate(0,0)"/>
<path d="" fill="#816C38" transform="translate(0,0)"/>
<path d="" fill="#7E6B32" transform="translate(0,0)"/>
<path d="" fill="#897136" transform="translate(0,0)"/>
<path d="" fill="#857234" transform="translate(0,0)"/>
<path d="" fill="#877235" transform="translate(0,0)"/>
<path d="" fill="#8A6F34" transform="translate(0,0)"/>
<path d="" fill="#887033" transform="translate(0,0)"/>
<path d="" fill="#877034" transform="translate(0,0)"/>
<path d="" fill="#917935" transform="translate(0,0)"/>
<path d="" fill="#877234" transform="translate(0,0)"/>
<path d="" fill="#8A7234" transform="translate(0,0)"/>
<path d="" fill="#846D30" transform="translate(0,0)"/>
<path d="" fill="#8E7634" transform="translate(0,0)"/>
<path d="" fill="#8C7637" transform="translate(0,0)"/>
<path d="" fill="#8C7537" transform="translate(0,0)"/>
<path d="" fill="#8E7736" transform="translate(0,0)"/>
<path d="" fill="#8B7436" transform="translate(0,0)"/>
<path d="" fill="#897135" transform="translate(0,0)"/>
<path d="" fill="#7A6734" transform="translate(0,0)"/>
<path d="" fill="#7C6831" transform="translate(0,0)"/>
<path d="" fill="#7C6830" transform="translate(0,0)"/>
<path d="" fill="#836F32" transform="translate(0,0)"/>
<path d="" fill="#7E6C34" transform="translate(0,0)"/>
<path d="" fill="#7E6A32" transform="translate(0,0)"/>
<path d="" fill="#8C7536" transform="translate(0,0)"/>
<path d="" fill="#836D32" transform="translate(0,0)"/>
<path d="" fill="#826C34" transform="translate(0,0)"/>
<path d="" fill="#867033" transform="translate(0,0)"/>
<path d="" fill="#826D31" transform="translate(0,0)"/>
<path d="" fill="#7E6D34" transform="translate(0,0)"/>
<path d="" fill="#816A30" transform="translate(0,0)"/>
<path d="" fill="#816C31" transform="translate(0,0)"/>
<path d="" fill="#806F32" transform="translate(0,0)"/>
<path d="" fill="#876E31" transform="translate(0,0)"/>
<path d="" fill="#947B33" transform="translate(0,0)"/>
<path d="" fill="#977731" transform="translate(0,0)"/>
<path d="" fill="#927730" transform="translate(0,0)"/>
<path d="" fill="#907733" transform="translate(0,0)"/>
<path d="" fill="#8F7533" transform="translate(0,0)"/>
<path d="" fill="#8F7531" transform="translate(0,0)"/>
<path d="" fill="#8E732E" transform="translate(0,0)"/>
<path d="" fill="#8D7731" transform="translate(0,0)"/>
<path d="" fill="#8F7532" transform="translate(0,0)"/>
<path d="" fill="#927731" transform="translate(0,0)"/>
<path d="" fill="#8E7430" transform="translate(0,0)"/>
<path d="" fill="#907431" transform="translate(0,0)"/>
<path d="" fill="#8F7630" transform="translate(0,0)"/>
<path d="" fill="#947933" transform="translate(0,0)"/>
<path d="" fill="#8E742E" transform="translate(0,0)"/>
<path d="" fill="#907430" transform="translate(0,0)"/>
<path d="" fill="#907532" transform="translate(0,0)"/>
<path d="" fill="#8C7532" transform="translate(0,0)"/>
<path d="" fill="#8D742D" transform="translate(0,0)"/>
<path d="" fill="#8F762F" transform="translate(0,0)"/>
<path d="" fill="#917831" transform="translate(0,0)"/>
<path d="" fill="#907531" transform="translate(0,0)"/>
<path d="" fill="#917531" transform="translate(0,0)"/>
<path d="" fill="#927631" transform="translate(0,0)"/>
<path d="" fill="#937830" transform="translate(0,0)"/>
<path d="" fill="#917530" transform="translate(0,0)"/>
<path d="" fill="#8E7632" transform="translate(0,0)"/>
<path d="" fill="#907733" transform="translate(0,0)"/>
<path d="" fill="#927730" transform="translate(0,0)"/>
<path d="" fill="#917831" transform="translate(0,0)"/>
<path d="" fill="#917830" transform="translate(0,0)"/>
<path d="" fill="#917632" transform="translate(0,0)"/>
<path d="" fill="#907731" transform="translate(0,0)"/>
<path d="" fill="#937632" transform="translate(0,0)"/>
<path d="" fill="#937732" transform="translate(0,0)"/>
<path d="" fill="#927733" transform="translate(0,0)"/>
<path d="" fill="#937732" transform="translate(0,0)"/>
<path d="" fill="#917433" transform="translate(0,0)"/>
<path d="" fill="#927832" transform="translate(0,0)"/>
<path d="" fill="#967734" transform="translate(0,0)"/>
<path d="" fill="#957732" transform="translate(0,0)"/>
</svg>
